<svg width="139" height="39" xmlns="http://www.w3.org/2000/svg" xml:space="preserve" version="1.1">

 <g>
  <title>Layer 1</title>
  <g id="svg_1">
   <path id="svg_2" fill="#FFFFFF" d="m134.7,0.1l0,24.4c0,6.7 -0.5,12.2 -8.8,12.2s-8.2,-7.2 -8.2,-13.5l0,-23.1l-6.3,0.1l0,9c0,0.1 0,0.2 0,0.3c0,5.5 0,11 0,16.6c0,9.4 4.5,13.3 13.8,13.3c11.3,0 13.7,-5.5 13.7,-15.5l0,-23.8l-4.2,0z" class="st1"/>
   <path id="svg_3" fill="#FFFFFF" d="m20.3,33.3c3.1,1.8 7.1,3.4 10.8,3.4c4.3,0 7.1,-2.1 7.1,-6.6c0,-9.2 -18.4,-8.3 -18.4,-20.2c0,-7.4 6.4,-9.8 12.7,-9.8c3.1,0 6.1,0.5 9.1,1l0,4.2c-3.1,-1.5 -6.7,-2.5 -10.1,-2.5s-5.4,2.1 -5.4,5.5c0,8.7 18.4,7.9 18.4,20c0,8.4 -6.9,11.1 -14.2,11.1c-3.3,0 -6.7,-0.7 -9.9,-1.5l0,-4.6l-0.1,0z" class="st1"/>
   <path id="svg_4" fill="#FFFFFF" d="m63.4,0.1l-12.6,0l0,7.9l0,31.4l6.4,0l0,-17.5c8.6,0 18,0.5 18,-11c0,-7.2 -5,-10.8 -11.8,-10.8zm-3.2,19.1l-3,0l0,-12.9c0,-2.7 0.4,-3.5 3.3,-3.5c5.7,0 8.3,1.8 8.3,7.8c0,6 -2.8,8.6 -8.6,8.6z" class="st1"/>
   <path id="svg_5" fill="#FFFFFF" d="m95.6,11.8c-3.4,0 -5.5,1.3 -7.1,4.2l-0.1,0l0,-16l-5.7,0l0,6.8l0,1.7l0,30.3l1.5,0l3.8,-3.2c2.1,2.2 4,3.8 7.3,3.8c7.6,0 10.2,-6.6 10.2,-13.2c0.1,-6.8 -1.7,-14.4 -9.9,-14.4zm-2.1,24.5c-4.6,0 -5.1,-6.7 -5.1,-10.1l0,-2.3c0,-3.6 0.8,-9 5.5,-9c5,0 5.4,6.8 5.4,10.5c0.1,4 -0.3,10.9 -5.8,10.9z" class="st1"/>
  </g>
  <g id="svg_6">
   <polygon id="svg_7" fill="#FFFFFF" points="2.4000015258789062,36.60000228881836 2.4000015258789062,39.20000076293945 0.20000076293945312,39.20000076293945 0.20000076293945312,33.999996185302734 10.60000228881836,33.999996185302734 10.60000228881836,36.60000228881836 " class="st1"/>
   <polygon id="svg_8" fill="#FFFFFF" points="12.900001525878906,29.89999771118164 2.5,24.499996185302734 2.5,30.39999771118164 0.40000152587890625,30.39999771118164 0.40000152587890625,22.10000228881836 2.1000003814697266,22.10000228881836 13.60000228881836,27.700000762939453 " class="st1"/>
   <path id="svg_9" fill="#FFFFFF" d="m8.4,20c-1,-1.3 -3.4,-5.3 -4.8,-5.3c-1.1,0 -1.5,0.8 -1.5,1.9c0,1 0.3,2 0.6,2.5l-1.9,0.7c-0.3,-0.5 -0.8,-1.9 -0.8,-3.2c0,-3.4 1.7,-4.2 3.4,-4.2c2.2,0 4.1,3 4.9,4.6l0,-5.2l2,0l0,8.2l-1.9,0z" class="st1"/>
   <path id="svg_10" fill="#FFFFFF" d="m10.5,4.6l0,5.9l-2.1,0l-8.4,-4.7l0,-3.7l8.4,0l0,-2l2.1,0l0,2l3.7,0l0,2.6l-3.7,0l0,-0.1zm-2.1,0l-5.7,0l5.7,3.2l0,-3.2z" class="st1"/>
  </g>
 </g>
</svg>